<svg width="21064" height="4775" viewBox="0 0 21064 4775" fill="none" xmlns="http://www.w3.org/2000/svg">
<g clip-path="url(#clip0_48_136)">
<path d="M1472.69 58.0436C504.284 281.174 -124.958 1204.94 35.6995 2168.86C267.761 3574.59 1874.34 4208.28 3016.79 3346.99C3387.2 3065.85 3650.5 2606.2 3726.36 2084.07L3757.6 1874.33H3351.49C2958.78 1874.33 2945.39 1878.79 2945.39 1972.51C2945.39 2155.47 2740.1 2521.41 2548.21 2682.06C2110.86 3061.38 1557.48 3030.15 1137.99 2610.66C825.599 2298.28 731.883 1959.12 856.838 1557.48C968.406 1178.16 1454.84 803.301 1838.64 803.301C1932.35 803.301 2097.47 834.539 2213.5 874.702C2325.07 910.403 2423.25 937.179 2427.71 928.254C2521.43 807.763 2802.58 285.637 2784.73 263.324C2740.1 191.922 2267.06 44.6558 1999.29 26.8053C1843.1 13.4175 1606.57 26.8053 1472.69 58.0436Z" fill="white"/>
<path d="M5547.15 44.6409C4989.31 129.431 4427.01 539.991 4181.56 1044.27C3628.19 2177.77 4293.13 3476.39 5551.61 3708.45C6319.2 3851.25 7158.19 3400.53 7528.6 2641.88C7644.63 2409.83 7653.55 2347.35 7653.55 1874.31C7653.55 1405.74 7644.63 1338.8 7533.06 1115.67C7153.73 348.099 6363.83 -80.3123 5547.15 44.6409ZM6140.69 870.225C6600.35 1004.1 6881.5 1387.89 6881.5 1874.31C6881.5 2369.66 6595.89 2744.52 6118.38 2882.86C5132.12 3172.94 4364.53 1985.88 5033.94 1204.92C5332.94 852.375 5703.35 740.809 6140.69 870.225Z" fill="white"/>
<path d="M9349.38 62.5195C8331.88 307.963 7720.49 1392.38 8028.42 2400.93C8117.67 2704.39 8447.91 3226.51 8577.33 3266.68C8613.03 3280.07 8568.41 3360.39 8438.99 3507.66C8189.08 3784.34 7997.18 4190.44 7961.48 4516.21L7930.24 4775.04H8340.81H8746.92V4650.09C8751.38 4480.51 8889.72 4194.9 9050.38 4034.25C9568.06 3516.58 10451.7 3681.7 10759.6 4351.09C10804.2 4449.27 10844.4 4583.15 10844.4 4650.09V4775.04H11246H11647.7V4650.09C11647.7 4306.47 11446.9 3842.36 11156.8 3512.12C10973.8 3302.38 10969.3 3302.38 11058.6 3222.05C11255 3052.47 11473.6 2699.93 11562.9 2400.93C11696.8 1963.59 11665.5 1499.48 11473.6 1093.38L11339.8 803.314H11473.6H11603.1V401.678V0.0428638L10590 4.50548C9956.31 4.50548 9487.73 26.8186 9349.38 62.5195ZM10335.6 963.968C10630.2 1142.47 10813.2 1441.47 10835.5 1785.09C10857.8 2110.86 10795.3 2298.29 10590 2543.73C10375.8 2789.18 10134.8 2900.74 9795.65 2900.74C9465.41 2900.74 9219.96 2793.64 9019.14 2566.05C8818.32 2338.45 8746.92 2151.02 8746.92 1865.42C8746.92 1249.58 9233.35 785.463 9844.74 816.702C10059 825.627 10170.5 861.328 10335.6 963.968Z" fill="white"/>
<path d="M12049.3 1829.76V3659.43H12451H12852.6V2641.96C12852.6 1758.36 12866 1606.63 12937.4 1450.44C13254.3 754.27 14133.4 611.467 14668.9 1169.29C14932.2 1441.51 14950.1 1544.15 14950.1 2655.34V3659.43H15351.7H15753.4V2641.96C15753.4 1312.1 15677.5 1035.42 15200 557.915C14664.5 22.4012 13771.9 -129.328 13107 205.368C12986.5 263.382 12879.4 312.471 12870.5 312.471C12861.5 312.471 12852.6 241.069 12852.6 156.28V0.08811H12451H12049.3V1829.76Z" fill="white"/>
<path d="M16155 1829.76V3659.43H16556.7H16958.3V1829.76V0.08811H16556.7H16155V1829.76Z" fill="white"/>
<path d="M18877.3 49.1227C18564.9 102.674 18230.2 263.328 17971.3 490.922C17150.2 1218.33 17150.2 2530.34 17980.3 3266.67C18529.2 3753.09 19296.8 3864.66 19984 3547.81C20117.9 3485.34 20233.9 3436.25 20242.9 3436.25C20251.8 3436.25 20260.7 3494.26 20260.7 3570.13V3704.01H20662.4H21064V1852.02V0.0339412H20662.4H20260.7V160.688C20260.7 272.254 20242.9 312.417 20207.2 299.029C19622.5 40.1975 19305.7 -17.8165 18877.3 49.1227ZM19671.6 932.721C20283 1245.1 20443.7 2030.52 20001.9 2543.73C19716.3 2882.88 19323.5 3003.37 18917.4 2882.88C18439.9 2744.54 18154.3 2365.22 18158.8 1865.41C18163.2 1084.45 18979.9 580.174 19671.6 932.721Z" fill="white"/>
<path d="M2918.61 812.239C2731.18 901.492 2673.16 1160.32 2789.19 1378.99C2860.6 1526.26 2936.46 1561.96 3150.67 1561.96C3373.81 1561.96 3525.54 1396.84 3525.54 1160.32C3525.54 834.553 3222.08 660.51 2918.61 812.239Z" fill="#DB2E2E"/>
</g>
<defs>
<clipPath id="clip0_48_136">
<rect width="21064" height="4775" fill="white"/>
</clipPath>
</defs>
</svg>
