<svg width="19832" height="3403" viewBox="0 0 19832 3403" fill="none" xmlns="http://www.w3.org/2000/svg">
<path d="M4872.37 1751.26H4524.54C4524.54 1474.31 4334.36 1305.82 4068.25 1305.82C3660.77 1305.82 3541.47 1669.92 3541.47 2033.63C3541.47 2381.46 3709.96 2674.68 4095.37 2674.68C4318.09 2674.68 4502.85 2511.61 4508.27 2272.62H4877.8C4866.95 2777.72 4437.78 2940.79 4079.49 2940.79C3438.43 2940.79 3134.37 2533.3 3134.37 2006.52C3134.37 1452.62 3422.17 1045.13 3998.14 1045.13C4215.44 1045.13 4394.78 1104.79 4519.51 1289.55L4524.93 1294.97V1083.09H4872.76L4872.37 1751.26Z" fill="white"/>
<path d="M6366.35 2245.51C6366.35 2680.1 6078.56 2935.36 5671.07 2935.36C5263.59 2935.36 4975.8 2680.1 4975.8 2245.51C4975.8 1810.91 5263.59 1555.65 5671.07 1555.65C6078.56 1555.65 6366.35 1810.91 6366.35 2245.51ZM5671.07 2669.26C5904.64 2669.26 5980.56 2451.96 5980.56 2245.51C5980.56 2039.05 5904.64 1821.76 5671.07 1821.76C5437.51 1821.76 5361.59 2039.05 5361.59 2245.51C5361.2 2451.96 5432.08 2669.26 5671.07 2669.26Z" fill="white"/>
<path d="M6371.78 2642.14H6556.15V1289.55H6371.78V1039.71H6925.67V2642.14H7105.01V2891.98H6371.78V2642.14Z" fill="white"/>
<path d="M7240.58 2642.14H7419.92V1289.55H7240.58V1039.71H7789.45V2642.14H7968.79V2891.98H7240.58V2642.14Z" fill="white"/>
<path d="M8397.57 2348.93C8397.57 2555.38 8517.26 2680.1 8723.33 2680.1C8848.44 2680.1 8940.63 2625.88 8978.59 2489.92H9326.42C9266.77 2804.83 9011.51 2929.94 8712.48 2929.94C8256.19 2929.94 8017.2 2658.41 8017.2 2223.82C8017.2 1816.33 8294.15 1550.23 8707.06 1550.23C9021.97 1550.23 9271.8 1729.57 9326.42 2049.9C9342.69 2152.93 9342.69 2250.93 9342.69 2343.12L8397.57 2348.93ZM8968.13 2115.36C8968.13 1930.6 8875.94 1805.87 8680.33 1805.87C8495.57 1805.87 8392.54 1941.83 8392.54 2115.36H8968.13Z" fill="white"/>
<path d="M11016 1843.83H10836.7V2772.68C10836.7 3103.86 10668.2 3402.88 10146.8 3402.88C9766.44 3402.88 9559.99 3283.19 9543.72 2973.71H9945.78C9956.63 3131.36 10065.5 3153.05 10184.8 3153.05C10347.8 3153.05 10467.1 2995.4 10467.1 2832.72V2685.91C10347.5 2816.45 10255.3 2876.1 10032.5 2876.1C9684.71 2876.1 9478.65 2577.46 9478.65 2245.89C9478.65 1860.1 9652.56 1561.46 10070.9 1561.46C10277.3 1561.46 10407.5 1659.07 10494.6 1795.03H10500.1V1594H11016V1843.83ZM10173.9 2609.61C10402.1 2609.61 10488.8 2424.85 10488.8 2212.97C10488.8 2011.94 10407.5 1821.75 10179.3 1821.75C9945.78 1821.75 9859.02 2022.78 9859.02 2229.24C9859.02 2430.27 9962.05 2609.61 10173.9 2609.61Z" fill="white"/>
<path d="M11445.2 2348.93C11445.2 2555.38 11564.9 2680.1 11770.9 2680.1C11901.5 2680.1 11988.2 2625.88 12026.2 2489.92H12374C12314.4 2804.83 12059.1 2929.94 11760.1 2929.94C11303.8 2929.94 11064.8 2658.41 11064.8 2223.82C11064.8 1816.33 11341.8 1550.23 11754.7 1550.23C12069.6 1550.23 12319.4 1729.57 12374 2049.9C12390.3 2152.93 12390.3 2250.93 12390.3 2343.12L11445.2 2348.93ZM12015.3 2115.36C12015.3 1930.6 11923.2 1805.87 11727.6 1805.87C11542.8 1805.87 11439.8 1941.83 11439.8 2115.36H12015.3Z" fill="white"/>
<path d="M12466.2 2631.3H12694.4V1343.78H12466.2V1077.67H13335.4C13666.6 1077.67 14052.4 1088.52 14052.4 1523.12C14052.4 1762.11 13927.3 1903.49 13682.9 1936.02V1941.44C13916.4 1952.29 14112 2120.78 14112 2365.2C14112 2913.67 13606.9 2897.4 13319.1 2897.4H12466.2V2631.3ZM13080.2 1838.02H13297.4C13482.2 1838.02 13677.8 1800.06 13677.8 1577.34C13677.8 1360.04 13482.2 1343.78 13313.7 1343.78H13085.6L13080.2 1838.02ZM13080.2 2631.3H13335.4C13569 2631.3 13732 2593.34 13732 2348.93C13732 2088.25 13531 2088.25 13335.4 2088.25H13074.7V2631.3H13080.2Z" fill="white"/>
<path d="M15562.2 2245.51C15562.2 2680.1 15274.4 2935.36 14867 2935.36C14459.5 2935.36 14171.7 2680.1 14171.7 2245.51C14171.7 1810.91 14459.5 1555.65 14867 1555.65C15279.9 1555.65 15562.2 1810.91 15562.2 2245.51ZM14872.4 2669.26C15105.9 2669.26 15181.9 2451.96 15181.9 2245.51C15181.9 2039.05 15105.9 1821.76 14872.4 1821.76C14638.8 1821.76 14562.9 2039.05 14562.9 2245.51C14557.5 2451.96 14633.4 2669.26 14872.4 2669.26Z" fill="white"/>
<path d="M16551.1 2707.22C16431.4 2881.14 16312.1 2935.36 16116.5 2935.36C15877.5 2935.36 15665.7 2793.98 15665.7 2517.03C15665.7 2087.86 16094.8 2077.01 16415.2 2077.01H16545.7V1979.4C16545.7 1827.18 16431.8 1778.37 16295.9 1778.37C16149.1 1778.37 16062.3 1838.02 16051.5 1990.25H15703.6C15725.3 1620.72 16029.4 1555.65 16333.8 1555.65C16752.2 1555.65 16887.7 1729.57 16887.7 2125.82V2647.18H17056.2V2897.02H16551.1V2707.22ZM16366.4 2299.73C16176.2 2299.73 16007.7 2332.27 16007.7 2506.19C16007.7 2631.3 16089 2685.53 16203.3 2685.53C16420.6 2685.53 16545.3 2522.46 16539.9 2299.73H16366.4Z" fill="white"/>
<path d="M17197.6 2642.15H17376.9V1843.83H17197.6V1594H17724.4V1843.83H17729.8C17805.7 1675.34 17936.3 1550.62 18131.9 1550.62C18186.1 1550.62 18240.3 1556.04 18289.5 1566.88V1870.95C18235.3 1854.68 18181.1 1854.68 18121 1854.68C17876.6 1854.68 17762.3 2034.02 17751.5 2262.16V2637.11H17974.2V2886.95H17203L17197.6 2642.15Z" fill="white"/>
<path d="M19652.6 2631.3H19831.9V2881.14H19316V2663.84H19310.5C19196.7 2848.6 19082.4 2919.1 18848.8 2919.1C18473.9 2919.1 18289.5 2598.76 18289.5 2250.93C18289.5 1772.95 18533.9 1544.81 18870.9 1544.81C19088.2 1544.81 19212.9 1647.84 19273 1772.95H19278.4V1278.7H19099.1V1028.87H19647.5V2631.3H19652.6ZM19305.1 2212.97C19305.1 2001.1 19212.9 1805.49 18984.8 1805.49C18751.2 1805.49 18675.3 2017.36 18675.3 2229.24C18675.3 2511.61 18789.2 2652.99 18952.3 2652.99C19228.8 2658.41 19305.1 2489.92 19305.1 2212.97Z" fill="white"/>
<path d="M2634.31 1104.79C2596.35 925.446 2465.82 800.722 2286.48 729.838C2286.48 729.838 2199.71 691.879 2134.25 681.033C2052.91 659.342 1987.45 648.497 1906.11 632.229C1797.65 610.537 1504.05 583.423 1455.24 583.423C1438.98 583.423 1449.82 567.155 1455.24 556.309C1471.51 534.618 1493.2 507.505 1509.47 485.813C1547.43 437.008 1574.55 382.78 1590.81 322.742C1607.08 257.669 1612.5 186.785 1607.08 116.289C1607.08 89.1748 1601.66 67.484 1590.81 40.3701C1585.39 29.5245 1579.97 13.2557 1569.12 2.41013C1558.28 -3.01266 1542.01 2.41013 1531.16 2.41013C1509.47 7.83292 1487.78 18.679 1466.09 29.5245C1335.56 100.021 1210.83 192.595 1134.91 317.319C1107.8 366.124 1086.11 420.353 1080.68 480.391C1080.68 496.659 1080.68 512.927 1080.68 529.195C1080.68 540.041 1080.68 550.886 1075.26 561.732C1069.84 572.578 1053.57 578 1037.3 578C1010.19 583.423 841.694 599.692 787.466 610.538C667.778 632.229 543.053 659.342 423.365 697.302C379.982 713.57 336.6 729.839 292.831 751.53L287.408 756.953C271.139 767.798 249.448 778.644 233.18 789.489L227.757 794.912C206.066 805.758 189.798 822.026 173.529 832.871C162.684 843.717 151.838 854.562 140.992 865.408C135.57 870.831 130.147 870.831 130.147 876.254C124.724 881.676 119.301 887.1 113.879 892.522C92.1874 914.214 75.919 946.75 59.6507 973.864L54.2279 979.287C48.8051 990.132 43.3823 1006.4 37.9595 1017.25C32.5367 1022.67 32.5367 1033.51 27.1139 1038.94C27.1139 1044.36 27.1139 1049.78 21.6911 1055.21C16.2684 1071.47 10.8456 1087.74 10.8456 1098.59C0 1136.55 0 1174.51 0 1212.47C0 1223.31 0 1239.58 5.42279 1250.43C5.42279 1261.27 5.42279 1266.69 10.8456 1272.12C10.8456 1277.54 10.8456 1288.39 16.2684 1293.81C32.5367 1391.42 70.4962 1462.3 70.4962 1462.3C108.456 1543.64 162.684 1641.64 238.99 1722.98C238.99 1722.98 249.836 1739.25 249.836 1760.94C255.258 1820.59 266.104 1951.13 325.755 2119.62C467.134 2543.37 754.929 2852.86 934.269 2994.24C934.269 2994.24 1031.88 3075.58 1070.23 3108.12C1124.45 3151.5 1217.03 3216.57 1217.03 3216.57C1254.99 3238.27 1271.26 3249.11 1320.06 3249.11C1379.71 3249.11 1423.09 3222 1466.86 3189.46C1521.09 3151.5 1743.81 2966.74 1743.81 2966.74C1977.38 2760.29 2352.33 2363.65 2390.29 1760.94C2390.29 1739.25 2401.13 1717.56 2401.13 1717.56C2477.05 1636.22 2531.67 1538.22 2569.63 1456.88C2580.08 1468.89 2678.08 1284.13 2634.31 1104.79ZM1271.26 485.813C1271.26 458.699 1282.1 431.585 1292.95 404.471C1320.06 339.398 1358.02 279.36 1406.83 225.132C1423.09 208.863 1439.36 192.595 1455.63 181.75C1461.05 176.327 1477.32 170.904 1488.17 170.904C1504.44 176.327 1471.9 263.092 1466.48 273.937C1444.79 333.588 1417.67 387.815 1374.29 442.431C1358.02 464.122 1336.33 485.813 1314.64 502.082C1309.22 507.504 1287.52 523.773 1276.68 523.773C1265.45 518.35 1271.26 491.236 1271.26 485.813ZM2335.67 1332.93C2330.25 1343.78 2319.4 1365.47 2313.98 1376.31C2313.98 1376.31 2156.33 1609.88 2183.45 1740.41C2199.71 1827.18 2248.52 1946.87 2129.22 2223.82C2064.15 2376.04 1982.42 2554.99 1738 2837.75C1738 2837.75 1656.66 2924.52 1612.89 2957.44C1612.89 2957.44 1406.44 3131.36 1335.94 3125.94C1276.29 3125.94 1222.06 3087.98 1183.72 3055.44C1151.18 3028.33 1075.26 2941.56 1069.84 2935.75C700.314 2468.62 684.046 2088.25 754.929 1822.14C776.621 1735.38 836.271 1669.92 901.732 1626.54C1037.69 1534.35 1216.64 1506.85 1243.76 1501.42C1314.25 1496 1346.79 1490.58 1423.09 1490.58C1477.32 1490.58 1531.55 1490.58 1586.17 1490.58C1618.7 1490.58 1645.82 1490.58 1678.35 1496C1721.73 1501.42 1765.12 1506.85 1803.46 1512.27C1830.58 1517.69 1857.69 1523.12 1879.38 1528.54C1901.07 1528.54 1922.77 1528.54 1922.77 1506.85C1922.77 1501.42 1922.77 1501.42 1922.77 1496C1911.92 1474.31 1873.96 1430.93 1721.74 1392.97C1689.2 1387.55 1656.66 1382.12 1618.7 1376.7C1597.01 1376.7 1575.32 1371.28 1548.21 1371.28C1531.94 1371.28 1521.09 1371.28 1504.82 1371.28H1499.4C1483.13 1371.28 1472.29 1371.28 1456.02 1371.28H1450.6C1434.33 1371.28 1418.06 1371.28 1401.79 1371.28C1385.52 1371.28 1369.25 1371.28 1352.99 1371.28C1092.3 1371.28 864.16 1398.39 864.16 1398.39C864.16 1398.39 451.253 1458.04 451.253 1153.98C451.253 855.338 826.2 789.877 1076.04 751.917H1081.46H1086.49C1097.34 751.917 1113.61 746.494 1124.45 746.494C1129.88 746.494 1140.72 746.494 1146.14 746.494C1162.41 746.494 1184.1 741.072 1200.37 741.072C1238.33 735.649 1287.14 735.649 1330.91 735.649C1336.33 735.649 1352.6 735.649 1352.6 735.649C1450.21 735.649 1542.78 741.072 1634.97 751.917C1705.47 762.763 1770.93 773.608 1841.42 789.876C2172.6 849.527 2482.47 1001.75 2335.67 1332.93Z" fill="white"/>
</svg>
