<svg width="18629" height="3426" viewBox="0 0 18629 3426" fill="none" xmlns="http://www.w3.org/2000/svg">
<path d="M9325.18 3130.08L8374.98 1909.73L9219.6 832.223H8738.29L8132.78 1599.21L7536.58 832.223H7061.48L7896.78 1900.42L6931.06 3130.08H7412.37L8138.99 2207.83L8859.4 3130.08H9325.18Z" fill="white"/>
<path d="M4164.3 267.098V829.142C4024.57 798.09 3894.15 785.669 3726.46 785.669C2940.85 785.669 2416.06 1316.66 2416.06 2021.54C2416.06 2729.53 2888.06 3186 3720.25 3186C4068.04 3186 4381.67 3108.37 4555.56 3018.32V267.098H4164.3ZM4164.3 2810.27C4055.62 2844.43 3903.46 2869.27 3754.41 2869.27C3130.26 2869.27 2822.85 2549.43 2822.85 2015.33C2822.85 1388.08 3270 1105.51 3748.2 1105.51C3928.3 1105.51 4033.88 1124.14 4164.3 1164.51V2810.27Z" fill="white"/>
<path d="M6965.18 2965.55L6828.55 2704.72C6614.29 2807.19 6431.08 2869.29 6095.72 2869.29C5577.14 2869.29 5176.57 2552.56 5167.26 2061.94H7021.07L7024.17 1950.15C7045.91 1235.95 6592.55 788.799 5946.67 788.799C5306.99 788.799 4769.79 1279.42 4760.47 1953.25C4748.05 2704.72 5275.94 3189.13 6033.61 3189.13C6393.82 3186.02 6732.28 3114.6 6965.18 2965.55ZM5182.78 1748.31C5226.26 1363.26 5567.83 1099.32 5940.46 1099.32C6362.76 1099.32 6592.55 1437.79 6608.08 1748.31H5182.78Z" fill="white"/>
<path d="M13386.8 2965.49L13250.2 2704.65C13035.9 2807.13 12852.7 2869.23 12517.3 2869.23C11998.8 2869.23 11598.2 2552.5 11588.9 2061.87H13442.7L13445.8 1950.09C13467.5 1235.89 13014.2 788.736 12368.3 788.736C11728.6 788.736 11191.4 1279.36 11182.1 1953.19C11169.7 2704.65 11700.7 3189.07 12455.2 3189.07C12812.3 3185.96 13150.8 3114.54 13386.8 2965.49ZM11604.4 1748.25C11647.9 1363.2 11989.4 1099.26 12362.1 1099.26C12784.4 1099.26 13011.1 1437.73 13026.6 1748.25H11604.4Z" fill="white"/>
<path d="M2204.92 2965.49L2068.29 2704.65C1854.03 2807.13 1670.82 2869.23 1335.46 2869.23C816.885 2869.23 419.417 2552.5 406.996 2061.87H2260.81L2263.91 1950.09C2285.65 1235.89 1832.29 788.736 1186.41 788.736C546.731 788.736 9.52905 1279.36 0.213409 1953.19C-12.2075 2704.65 518.784 3189.07 1273.35 3189.07C1633.56 3185.96 1972.02 3114.54 2204.92 2965.49ZM422.523 1748.25C465.996 1363.2 807.569 1099.26 1180.2 1099.26C1602.5 1099.26 1832.29 1437.73 1844.71 1748.25H422.523Z" fill="white"/>
<path d="M11259.7 2965.51L11110.7 2695.35C10943 2791.61 10654.2 2863.03 10443 2863.03C9887.2 2863.03 9592.21 2533.88 9586 1981.15C9579.79 1453.27 9905.83 1111.69 10458.6 1111.69C10657.3 1111.69 10874.7 1158.27 11088.9 1273.16L11231.8 993.694C11082.7 891.222 10784.6 785.645 10452.4 785.645C9539.42 785.645 9169.9 1422.21 9176.11 2015.31C9182.32 2599.09 9542.52 3185.98 10418.2 3185.98C10595.2 3185.98 10918.1 3158.03 11259.7 2965.51Z" fill="white"/>
<path d="M14271.8 2859.88L14405.3 3111.4C14371.1 3130.03 14187.9 3185.93 14060.6 3185.93C13762.5 3185.93 13644.5 3027.56 13644.5 2757.41V270.129H14035.8V2661.14C14035.8 2890.93 14119.6 2894.04 14271.8 2859.88Z" fill="white"/>
<path d="M16134.9 74.525C16181.5 121.103 16209.4 419.204 16209.4 490.624C16209.4 562.043 16181.5 860.144 16134.9 906.722C16088.3 953.3 15790.2 981.247 15718.8 981.247C15647.4 981.247 15349.3 953.3 15302.7 906.722C15256.1 860.144 15228.2 562.043 15228.2 490.624C15228.2 419.204 15256.1 121.103 15302.7 74.525C15349.3 27.9467 15647.4 0 15718.8 0C15790.2 0 16088.3 27.9467 16134.9 74.525Z" fill="white"/>
<path d="M18553.9 2490.41C18600.4 2536.98 18628.4 2835.08 18628.4 2906.5C18628.4 2977.92 18600.4 3276.03 18553.9 3322.6C18507.3 3369.18 18209.2 3397.13 18137.8 3397.13C18066.3 3397.13 17768.2 3369.18 17721.7 3322.6C17675.1 3276.03 17647.1 2977.92 17647.1 2906.5C17647.1 2835.08 17675.1 2536.98 17721.7 2490.41C17768.2 2443.83 18066.3 2415.88 18137.8 2415.88C18209.2 2415.88 18507.3 2443.83 18553.9 2490.41Z" fill="white"/>
<path d="M16107 1307.31C16178.4 1378.73 16221.8 1592.99 16221.8 1698.56C16221.8 1804.14 16178.4 2018.4 16107 2089.82C16035.5 2161.24 15824.4 2204.71 15715.7 2204.71C15607 2204.71 15395.9 2161.24 15324.4 2089.82C15253 2018.4 15212.7 1804.14 15209.5 1698.56C15209.5 1592.99 15253 1378.73 15324.4 1307.31C15395.9 1235.89 15607 1192.41 15715.7 1192.41C15824.4 1195.52 16038.6 1238.99 16107 1307.31Z" fill="white"/>
<path d="M17321.1 2518.34C17389.5 2589.76 17432.9 2804.02 17432.9 2909.6C17432.9 3015.18 17389.5 3229.44 17321.1 3300.86C17249.7 3372.28 17035.5 3415.75 16929.9 3415.75C16821.2 3415.75 16610 3372.28 16538.6 3300.86C16467.2 3229.44 16426.8 3018.28 16423.7 2909.6C16423.7 2804.02 16467.2 2589.76 16538.6 2518.34C16610 2446.92 16821.2 2403.45 16929.9 2403.45C17038.6 2403.45 17252.8 2446.92 17321.1 2518.34Z" fill="white"/>
<path d="M17370.8 52.8178C17392.5 77.6596 17408.1 459.602 17408.1 496.864C17408.1 531.021 17392.5 916.068 17370.8 940.909C17346 965.751 16964 978.172 16926.8 978.172C16889.5 978.172 16507.6 962.646 16482.7 940.909C16457.9 916.068 16445.4 534.127 16445.4 496.864C16445.4 459.602 16461 77.6596 16482.7 52.8178C16507.6 31.0813 16889.5 15.5558 16926.8 15.5558C16964 12.4506 17349.1 27.9761 17370.8 52.8178Z" fill="white"/>
<path d="M18584.9 1257.64C18606.7 1282.48 18622.2 1664.42 18622.2 1701.68C18622.2 1735.84 18606.7 2120.88 18584.9 2145.73C18560.1 2170.57 18178.1 2182.99 18140.9 2182.99C18106.7 2182.99 17721.7 2167.46 17696.8 2145.73C17672 2120.88 17659.6 1738.94 17659.6 1701.68C17659.6 1667.52 17675.1 1282.48 17696.8 1257.64C17718.6 1235.9 18103.6 1220.37 18140.9 1220.37C18178.1 1220.37 18560.1 1235.9 18584.9 1257.64Z" fill="white"/>
<path d="M17342.8 1282.47C17389.4 1329.04 17417.4 1627.15 17417.4 1698.56C17417.4 1769.98 17389.4 2068.09 17342.8 2114.66C17296.3 2161.24 16998.2 2189.19 16926.7 2189.19C16855.3 2189.19 16557.2 2161.24 16510.6 2114.66C16464.1 2068.09 16436.1 1769.98 16436.1 1698.56C16436.1 1627.15 16464.1 1329.04 16510.6 1282.47C16557.2 1235.89 16855.3 1207.94 16926.7 1207.94C16998.2 1207.94 17296.3 1235.89 17342.8 1282.47Z" fill="white"/>
<path d="M18603.6 24.8652H17665.8V962.64H18603.6V24.8652Z" fill="white"/>
<path d="M15718.8 3425.1C15433.1 3425.1 15203.4 3195.32 15203.4 2909.64C15203.4 2623.96 15433.1 2394.17 15718.8 2394.17C16004.5 2394.17 16234.3 2623.96 16234.3 2909.64C16234.3 3192.21 16004.5 3425.1 15718.8 3425.1Z" fill="white"/>
</svg>
