<svg width="16965" height="11786" viewBox="0 0 16965 11786" fill="none" xmlns="http://www.w3.org/2000/svg">
<path fill-rule="evenodd" clip-rule="evenodd" d="M12745.2 7958.23C12756.5 7958.23 12766.9 7967.64 12766.9 7979.87V9004.45C12766.9 9016.68 12756.5 9026.09 12745.2 9026.09C12270.1 9026.09 11795.9 9026.09 11320.8 9026.09C11308.6 9026.09 11299.2 9016.68 11299.2 9004.45V8540.61C11296.3 8110.64 11578.6 7958.23 12022.7 7958.23H12745.2ZM11927.6 8160.51H12494C12508.1 8160.51 12519.4 8171.8 12519.4 8185.91V8798.4C12519.4 8812.52 12508.1 8823.81 12494 8823.81H11572C11557.9 8823.81 11546.6 8812.52 11546.6 8798.4V8477.57C11546.6 8332.68 11646.3 8160.51 11927.6 8160.51ZM12296.5 7373.02C12366.1 7373.02 12422.5 7429.47 12422.5 7499.09C12422.5 7568.72 12366.1 7626.11 12296.5 7626.11C12226.8 7626.11 12170.4 7568.72 12170.4 7499.09C12170.4 7429.47 12226.8 7373.02 12296.5 7373.02ZM11876.8 7373.02C11946.5 7373.02 12002.9 7429.47 12002.9 7499.09C12002.9 7568.72 11946.5 7626.11 11876.8 7626.11C11807.2 7626.11 11750.8 7568.72 11750.8 7499.09C11750.8 7429.47 11807.2 7373.02 11876.8 7373.02ZM16475.7 9048.67V9329.98C16472.9 9398.67 16376.9 9454.18 16321.4 9503.1C16272.5 9546.38 16272.5 9579.31 16378.8 9569.9C16514.3 9558.61 16724.1 9392.08 16723.1 9239.66V7979.87C16723.1 7967.64 16713.7 7958.23 16701.5 7958.23H15978.9C15535.8 7958.23 15252.6 8110.64 15255.4 8540.61V9004.45C15255.4 9016.68 15265.8 9026.09 15278 9026.09H16454.1C16466.3 9026.09 16475.7 9036.44 16475.7 9048.67ZM15883.9 8160.51H16450.3C16464.4 8160.51 16475.7 8171.8 16475.7 8185.91V8798.4C16475.7 8812.52 16464.4 8823.81 16450.3 8823.81H15529.2C15515.1 8823.81 15503.8 8812.52 15503.8 8798.4V8477.57C15503.8 8332.68 15603.5 8160.51 15883.9 8160.51ZM14673 7958.23H14876.3C14888.5 7958.23 14898.8 7967.64 14898.8 7979.87C14898.8 8359.97 14898.8 8596.12 14898.8 8976.22C14898.8 9472.05 14602.5 9585.89 14447.2 9607.53C14341.9 9622.59 14320.2 9520.98 14410.5 9488.99C14480.2 9464.52 14651.4 9452.29 14651.4 9082.54C14651.4 8714.67 14651.4 8347.74 14651.4 7979.87C14651.4 7967.64 14660.8 7958.23 14673 7958.23ZM14780.3 7373.02C14849.9 7373.02 14906.4 7429.47 14906.4 7499.09C14906.4 7568.72 14849.9 7626.11 14780.3 7626.11C14710.7 7626.11 14653.3 7568.72 14653.3 7499.09C14653.3 7429.47 14710.7 7373.02 14780.3 7373.02ZM13974.9 7372.08H14178.1C14190.4 7372.08 14200.7 7382.43 14200.7 7394.66V9006.33C14200.7 9018.56 14190.4 9028.91 14178.1 9028.91H13974.9C13962.7 9028.91 13953.3 9018.56 13953.3 9006.33V7394.66C13953.3 7382.43 13962.7 7372.08 13974.9 7372.08ZM13307.9 7958.23H13511.1C13523.3 7958.23 13532.7 7967.64 13532.7 7979.87C13532.7 8359.97 13532.7 8596.12 13532.7 8976.22C13532.7 9472.05 13237.3 9585.89 13082.1 9607.53C12975.7 9622.59 12954.1 9520.98 13045.4 9488.99C13115 9464.52 13285.3 9452.29 13285.3 9082.54C13285.3 8714.67 13285.3 8347.74 13285.3 7979.87C13285.3 7967.64 13295.6 7958.23 13307.9 7958.23ZM185.855 9329.98C183.033 9398.67 87.0659 9454.18 31.5561 9503.1C-17.368 9546.38 -17.368 9579.31 88.9478 9569.9C225.371 9558.61 435.18 9392.08 434.239 9239.66V9026.09H9695.01C9707.24 9026.09 9717.59 9016.68 9717.59 9004.45V7394.66C9717.59 7382.43 9707.24 7372.08 9695.01 7372.08H9491.78C9479.55 7372.08 9469.2 7382.43 9469.2 7394.66V8757.01C9469.2 8769.24 9459.8 8778.65 9447.56 8778.65H8819.08C8806.85 8778.65 8796.5 8769.24 8796.5 8757.01V7974.22C8796.5 7961.99 8787.09 7952.58 8774.86 7952.58H8570.69C8559.4 7952.58 8549.05 7961.99 8549.05 7974.22V8757.01C8549.05 8769.24 8539.65 8778.65 8527.42 8778.65H5958.9C5945.73 8778.65 5933.5 8767.36 5933.5 8753.24V8477.57C5933.5 8332.68 6034.17 8160.51 6314.54 8160.51H7355.12C7367.35 8160.51 7377.7 8150.16 7377.7 8137.93V7979.87C7377.7 7967.64 7367.35 7958.23 7355.12 7958.23H6409.57C5965.49 7958.23 5683.23 8110.64 5686.05 8540.61V8757.01C5686.05 8769.24 5676.65 8778.65 5664.41 8778.65H3579.49C3567.26 8778.65 3557.86 8769.24 3557.86 8757.01V7387.13C3557.86 7375.84 3547.51 7365.49 3535.27 7365.49H3332.05C3319.82 7365.49 3310.41 7375.84 3310.41 7387.13V8757.01C3310.41 8769.24 3300.06 8778.65 3287.83 8778.65H2585.96C2573.73 8778.65 2564.32 8769.24 2564.32 8757.01V7987.39C2564.32 7975.16 2553.97 7965.75 2541.74 7965.75H2338.52C2326.28 7965.75 2316.88 7975.16 2316.88 7987.39V8757.01C2316.88 8769.24 2306.53 8778.65 2294.3 8778.65H1843.63C1831.4 8778.65 1821.99 8769.24 1821.99 8757.01V8540.61C1824.81 8110.64 1541.62 7958.23 1098.48 7958.23H208.436C196.204 7958.23 185.855 7967.64 185.855 7979.87V9329.98ZM1193.5 8160.51H459.642C445.529 8160.51 434.239 8171.8 434.239 8185.91V8753.24C434.239 8767.36 445.529 8778.65 459.642 8778.65H1548.2C1562.32 8778.65 1574.55 8767.36 1574.55 8753.24V8477.57C1574.55 8332.68 1473.88 8160.51 1193.5 8160.51ZM2649.94 9337.51C2719.56 9337.51 2776.95 9393.96 2776.95 9463.58C2776.95 9533.21 2719.56 9589.66 2649.94 9589.66C2580.31 9589.66 2523.86 9533.21 2523.86 9463.58C2523.86 9393.96 2580.31 9337.51 2649.94 9337.51ZM2230.32 9337.51C2299.94 9337.51 2356.39 9393.96 2356.39 9463.58C2356.39 9533.21 2299.94 9589.66 2230.32 9589.66C2160.7 9589.66 2104.24 9533.21 2104.24 9463.58C2104.24 9393.96 2160.7 9337.51 2230.32 9337.51ZM8883.06 7373.02C8952.68 7373.02 9009.13 7429.47 9009.13 7499.09C9009.13 7568.72 8952.68 7626.11 8883.06 7626.11C8813.43 7626.11 8756.98 7568.72 8756.98 7499.09C8756.98 7429.47 8813.43 7373.02 8883.06 7373.02ZM8463.44 7373.02C8533.06 7373.02 8589.51 7429.47 8589.51 7499.09C8589.51 7568.72 8533.06 7626.11 8463.44 7626.11C8392.87 7626.11 8336.42 7568.72 8336.42 7499.09C8336.42 7429.47 8392.87 7373.02 8463.44 7373.02ZM10152.3 7372.08H10356.4C10368.7 7372.08 10378.1 7382.43 10378.1 7394.66V9006.33C10378.1 9018.56 10368.7 9028.91 10356.4 9028.91H10152.3C10140 9028.91 10130.6 9018.56 10130.6 9006.33V7394.66C10130.6 7382.43 10140 7372.08 10152.3 7372.08Z" fill="white"/>
<path fill-rule="evenodd" clip-rule="evenodd" d="M817.616 11107.3C832.67 11127.1 843.019 11127.1 853.368 11106.4L1332.26 10199.4C1338.85 10186.2 1348.25 10180.6 1361.43 10180.6H1447.98C1464.92 10180.6 1479.03 10193.8 1479.03 10211.6V11253.1C1479.03 11270.1 1464.92 11284.2 1447.98 11284.2H1361.43C1343.55 11284.2 1329.44 11270.1 1329.44 11253.1V10440.3L909.819 11220.2C863.718 11306.8 760.224 11306.8 716.945 11220.2L372.595 10542.8V11253.1C372.595 11270.1 358.482 11284.2 341.547 11284.2H254.989C237.113 11284.2 223 11270.1 223 11253.1V10211.6C223 10193.8 237.113 10180.6 254.989 10180.6H341.547C353.778 10180.6 365.068 10187.2 369.772 10197.5V10198.5L817.616 11107.3ZM1860.08 10461.9H1946.63C1964.51 10461.9 1978.62 10476 1978.62 10492.9V11253.1C1978.62 11270.1 1964.51 11284.2 1946.63 11284.2H1860.08C1843.14 11284.2 1829.03 11270.1 1829.03 11253.1V10492.9C1829.03 10476 1843.14 10461.9 1860.08 10461.9ZM1903.36 10180.6C1947.57 10180.6 1984.27 10216.3 1984.27 10260.6C1984.27 10304.8 1947.57 10340.5 1903.36 10340.5C1859.14 10340.5 1823.38 10304.8 1823.38 10260.6C1823.38 10216.3 1859.14 10180.6 1903.36 10180.6ZM3446.35 10461.9H3533.85C3550.78 10461.9 3564.89 10476 3564.89 10492.9V11253.1C3564.89 11270.1 3550.78 11284.2 3533.85 11284.2H3446.35C3429.41 11284.2 3415.3 11270.1 3415.3 11253.1V10492.9C3415.3 10476 3429.41 10461.9 3446.35 10461.9ZM3489.63 10180.6C3534.79 10180.6 3570.54 10216.3 3570.54 10260.6C3570.54 10304.8 3534.79 10340.5 3489.63 10340.5C3445.41 10340.5 3409.65 10304.8 3409.65 10260.6C3409.65 10216.3 3445.41 10180.6 3489.63 10180.6ZM14771.3 10461.9H14858.8C14875.8 10461.9 14889.9 10476 14889.9 10492.9V11253.1C14889.9 11270.1 14875.8 11284.2 14858.8 11284.2H14771.3C14754.4 11284.2 14740.3 11270.1 14740.3 11253.1V10492.9C14740.3 10476 14754.4 10461.9 14771.3 10461.9ZM14814.6 10180.6C14858.8 10180.6 14895.5 10216.3 14895.5 10260.6C14895.5 10304.8 14858.8 10340.5 14814.6 10340.5C14770.4 10340.5 14734.6 10304.8 14734.6 10260.6C14734.6 10216.3 14770.4 10180.6 14814.6 10180.6ZM2937.35 10792.1C2936.41 10598.3 2773.64 10534.3 2440.58 10538.1V11253.1C2440.58 11270.1 2425.53 11284.2 2408.59 11284.2H2322.03C2305.1 11284.2 2290.04 11270.1 2290.04 11253.1V10492.9C2290.04 10476 2305.1 10461.9 2322.03 10461.9C2451.87 10461.9 2584.53 10457.2 2713.43 10461.9C2948.64 10471.3 3086.94 10617.1 3086.94 10845.8V11253.1C3086.94 11270.1 3072.83 11284.2 3055.89 11284.2H2968.4C2951.46 11284.2 2937.35 11270.1 2937.35 11253.1V10792.1ZM16797 10792.1C16796 10598.3 16633.3 10534.3 16300.2 10538.1V11253.1C16300.2 11270.1 16286.1 11284.2 16269.2 11284.2H16181.7C16164.7 11284.2 16150.6 11270.1 16150.6 11253.1V10492.9C16150.6 10476 16164.7 10461.9 16181.7 10461.9C16311.5 10461.9 16445.1 10457.2 16574 10461.9C16809.2 10471.3 16946.6 10617.1 16946.6 10845.8V11253.1C16946.6 11270.1 16932.5 11284.2 16915.5 11284.2H16829C16811.1 11284.2 16797 11270.1 16797 11253.1V10792.1ZM11279.8 10951.1C11280.8 11145.9 11443.6 11209.9 11776.6 11206.1V10491.1C11776.6 10474.1 11790.7 10460 11807.7 10460H11895.2C11912.1 10460 11926.2 10474.1 11926.2 10491.1V11251.3C11926.2 11268.2 11912.1 11282.3 11895.2 11282.3C11765.3 11282.3 11631.7 11287 11502.8 11281.4C11268.6 11272.9 11130.3 11127.1 11130.3 10898.4V10491.1C11130.3 10474.1 11144.4 10460 11161.3 10460H11247.9C11265.7 10460 11279.8 10474.1 11279.8 10491.1V10951.1ZM4627.11 10901.3V10211.6C4627.11 10193.8 4641.22 10180.6 4658.16 10180.6H4744.72C4762.59 10180.6 4776.71 10194.7 4776.71 10211.6V10448.7C4776.71 10457.2 4783.29 10464.7 4791.76 10464.7H5010.04C5019.44 10464.7 5026.03 10471.3 5026.03 10479.8V10523.1C5026.03 10532.5 5019.44 10539 5010.98 10539H4791.76C4783.29 10539 4776.71 10545.6 4776.71 10555V10974.7C4777.65 11100.7 4848.21 11172.2 4993.1 11204.2C5080.6 11223 5105.06 11287 4999.69 11284.2C4765.42 11277.6 4627.11 11129 4627.11 10901.3ZM14089.2 10901.3V10211.6C14089.2 10193.8 14103.3 10180.6 14120.3 10180.6H14207.8C14224.7 10180.6 14238.8 10194.7 14238.8 10211.6V10448.7C14238.8 10457.2 14245.4 10464.7 14253.9 10464.7H14473.1C14481.6 10464.7 14488.1 10471.3 14488.1 10479.8V10523.1C14488.1 10532.5 14481.6 10539 14473.1 10539H14253.9C14245.4 10539 14238.8 10545.6 14238.8 10555V10974.7C14239.8 11100.7 14310.3 11172.2 14455.2 11204.2C14542.7 11223 14568.1 11287 14461.8 11284.2C14227.5 11277.6 14089.2 11129 14089.2 10901.3ZM8166.58 10563.5V11253.1C8166.58 11270.1 8180.69 11284.2 8197.63 11284.2H8284.19C8302.06 11284.2 8316.18 11270.1 8316.18 11253.1V10778C8316.18 10769.6 8322.76 10762 8331.23 10762H8549.51C8557.97 10762 8565.5 10755.4 8565.5 10747V10702.8C8565.5 10695.2 8558.92 10687.7 8550.45 10687.7H8331.23C8322.76 10687.7 8316.18 10680.2 8316.18 10671.7V10490.1C8317.12 10364 8387.68 10291.6 8532.57 10260.6C8620.07 10241.7 8644.53 10177.8 8539.16 10180.6C8303.95 10186.2 8166.58 10335.8 8166.58 10563.5ZM5263.12 10844.8V11253.1C5263.12 11270.1 5277.24 11284.2 5294.17 11284.2H5381.67C5398.61 11284.2 5412.72 11270.1 5412.72 11253.1C5412.72 10727.2 5412.72 11484.6 5412.72 10771.4C5413.66 10645.4 5485.16 10573.9 5629.11 10541.9C5716.61 10523.1 5742.02 10459.1 5636.64 10461.9C5401.43 10468.5 5263.12 10617.1 5263.12 10844.8ZM6471.17 11300.2C6471.17 11290.8 6464.59 11284.2 6455.18 11284.2C6394.96 11285.1 6359.21 11285.1 6276.42 11281.4C6042.15 11272.9 5903.84 11127.1 5903.84 10898.4V10491.1C5903.84 10474.1 5917.95 10460 5934.89 10460H6022.39C6039.32 10460 6053.44 10474.1 6053.44 10491.1V10951.1C6053.44 11091.3 6144.7 11216.5 6264.19 11215.5C6339.45 11215.5 6471.17 11155.3 6471.17 11001C6471.17 10830.7 6471.17 10661.4 6471.17 10491.1C6471.17 10474.1 6485.29 10460 6502.22 10460H6589.72C6606.66 10460 6620.77 10474.1 6620.77 10491.1V11402.7C6620.77 11630.4 6482.46 11779.1 6247.25 11785.7C6141.88 11788.5 6167.28 11724.5 6254.78 11704.8C6398.73 11673.7 6470.23 11593.7 6471.17 11467.7V11300.2ZM9169.53 10180.6C9408.5 10180.6 9646.54 10180.6 9885.51 10180.6C9897.74 10180.6 9907.15 10190 9907.15 10202.2V10264.3C9907.15 10276.5 9897.74 10286 9885.51 10286H9288.07V10653.8H9711.46C9723.69 10653.8 9734.04 10664.2 9734.04 10676.4V10738.5C9734.04 10750.7 9723.69 10760.1 9711.46 10760.1H9288.07V11177.9H9885.51C9897.74 11177.9 9907.15 11188.2 9907.15 11200.5V11261.6C9907.15 11273.8 9897.74 11284.2 9885.51 11284.2C9646.54 11284.2 9408.5 11284.2 9169.53 11284.2C9152.59 11284.2 9138.48 11270.1 9138.48 11253.1V10211.6C9138.48 10193.8 9152.59 10180.6 9169.53 10180.6ZM7481.64 10461.9H7668.87C7840.11 10461.9 7981.24 10602.1 7981.24 10774.3V10971.8C7981.24 11144 7840.11 11284.2 7668.87 11284.2H7481.64C7310.41 11284.2 7170.22 11144 7170.22 10971.8V10774.3C7170.22 10602.1 7310.41 10461.9 7481.64 10461.9ZM7519.28 10544.7H7632.18C7735.67 10544.7 7821.29 10630.3 7821.29 10733.8V11011.4C7821.29 11115.8 7735.67 11201.4 7632.18 11201.4H7519.28C7414.84 11201.4 7329.23 11115.8 7329.23 11011.4V10733.8C7329.23 10630.3 7414.84 10544.7 7519.28 10544.7ZM15453.5 10461.9H15639.7C15811 10461.9 15952.1 10602.1 15952.1 10774.3V10971.8C15952.1 11144 15811 11284.2 15639.7 11284.2H15453.5C15281.3 11284.2 15141.1 11144 15141.1 10971.8V10774.3C15141.1 10602.1 15281.3 10461.9 15453.5 10461.9ZM15489.2 10544.7H15603C15707.5 10544.7 15792.2 10630.3 15792.2 10733.8V11011.4C15792.2 11115.8 15707.5 11201.4 15603 11201.4H15489.2C15385.7 11201.4 15300.1 11115.8 15300.1 11011.4V10733.8C15300.1 10630.3 15385.7 10544.7 15489.2 10544.7ZM10699.3 11195.8C10699.3 11204.2 10692.8 11210.8 10684.3 11210.8H10402C10276 11210.8 10173.4 11108.3 10173.4 10982.2V10763.9C10173.4 10637.8 10276 10534.3 10402 10534.3H10684.3C10692.8 10534.3 10699.3 10541.9 10699.3 10550.3V11195.8ZM10699.3 10445.9C10699.3 10454.4 10692.8 10461.9 10684.3 10461.9H10336.2C10164 10461.9 10023.8 10602.1 10023.8 10774.3V10971.8C10023.8 11144 10164 11284.2 10336.2 11284.2H10817.9C10834.8 11284.2 10848.9 11270.1 10848.9 11253.1V10211.6C10848.9 10193.8 10834.8 10180.6 10817.9 10180.6H10730.4C10713.5 10180.6 10699.3 10194.7 10699.3 10211.6V10445.9ZM13680.9 11019.8C13680.9 11096 13631 11227.7 13383.6 11210.8C13258.5 11202.3 13154 11108.3 13154 10982.2V10763.9C13154 10637.8 13257.5 10534.3 13383.6 10534.3H13665.8C13674.3 10534.3 13680.9 10541.9 13680.9 10550.3V11019.8ZM13316.8 10461.9C13145.6 10461.9 13004.4 10602.1 13004.4 10774.3V10971.8C13004.4 11144 13145.6 11284.2 13316.8 11284.2C13471.1 11284.2 13656.4 11261.6 13680 11265.4C13695.9 11269.1 13701.6 11284.2 13727 11284.2H13799.4C13816.4 11284.2 13830.5 11270.1 13830.5 11253.1V10492.9C13830.5 10476 13816.4 10461.9 13799.4 10461.9C13649.8 10461.9 13527.5 10461.9 13316.8 10461.9ZM12435.2 11284.2C12264 11284.2 12122.8 11144 12122.8 10971.8V10774.3C12122.8 10602.1 12264 10461.9 12435.2 10461.9H12845.4C12849.2 10461.9 12852 10464.7 12852 10468.5V10527.8C12852 10531.5 12849.2 10534.3 12845.4 10534.3C12731.6 10534.3 12616.8 10534.3 12502 10534.3C12375.9 10534.3 12272.4 10637.8 12272.4 10763.9V10982.2C12272.4 11108.3 12375.9 11210.8 12502 11210.8C12616.8 11210.8 12731.6 11210.8 12845.4 11210.8C12849.2 11210.8 12852 11214.6 12852 11217.4V11277.6C12852 11281.4 12849.2 11284.2 12845.4 11284.2H12435.2ZM4279 10525.9C4354.26 10525.9 4352.38 10424.3 4281.82 10417.7C4073.89 10397 3878.2 10441.2 3829.27 10608.7C3792.58 10733.8 3866.91 10846.7 4047.55 10879.6C4285.58 10923.9 4375.9 11039.6 4275.23 11144C4223.49 11197.6 4063.54 11176.9 3947.82 11183.5C3822.69 11191.1 3840.56 11283.3 3947.82 11284.2C4136.93 11286.1 4345.8 11311.5 4421.07 11187.3C4499.16 11055.6 4432.36 10874 4285.58 10842.9C4088 10802.5 3965.69 10760.1 3991.1 10645.4C4015.56 10536.2 4110.59 10527.8 4279 10525.9Z" fill="white"/>
<path fill-rule="evenodd" clip-rule="evenodd" d="M8585.89 5077.05C8709.14 5077.05 8808.87 5176.78 8808.87 5300.03C8808.87 5423.28 8709.14 5523.95 8585.89 5523.95C8461.7 5523.95 8361.97 5423.28 8361.97 5300.03C8361.97 5176.78 8461.7 5077.05 8585.89 5077.05Z" fill="white"/>
<path fill-rule="evenodd" clip-rule="evenodd" d="M8585.75 3141.51C8720.29 3141.51 8829.43 3251.59 8829.43 3386.13C8829.43 3520.67 8720.29 3629.81 8585.75 3629.81C8450.26 3629.81 8341.12 3520.67 8341.12 3386.13C8341.12 3251.59 8450.26 3141.51 8585.75 3141.51Z" fill="white"/>
<path fill-rule="evenodd" clip-rule="evenodd" d="M9703.61 4060.94C9838.15 4060.94 9947.29 4171.02 9947.29 4305.56C9947.29 4440.1 9838.15 4549.24 9703.61 4549.24C9569.07 4549.24 9459.93 4440.1 9459.93 4305.56C9459.93 4171.02 9569.07 4060.94 9703.61 4060.94Z" fill="white"/>
<path fill-rule="evenodd" clip-rule="evenodd" d="M7515.09 4101.13C7650.57 4101.13 7759.71 4210.27 7759.71 4344.81C7759.71 4480.29 7650.57 4589.43 7515.09 4589.43C7380.55 4589.43 7271.41 4480.29 7271.41 4344.81C7271.41 4210.27 7380.55 4101.13 7515.09 4101.13Z" fill="white"/>
<path fill-rule="evenodd" clip-rule="evenodd" d="M5261.63 4441.96C5384.88 4441.96 5485.55 4542.64 5485.55 4665.89C5485.55 4789.14 5384.88 4889.81 5261.63 4889.81C5138.38 4889.81 5037.71 4789.14 5037.71 4665.89C5037.71 4542.64 5138.38 4441.96 5261.63 4441.96Z" fill="white"/>
<path fill-rule="evenodd" clip-rule="evenodd" d="M11922.8 4414.46C12046.1 4414.46 12145.8 4514.19 12145.8 4638.39C12145.8 4761.64 12046.1 4861.37 11922.8 4861.37C11798.6 4861.37 11698.9 4761.64 11698.9 4638.39C11698.9 4514.19 11798.6 4414.46 11922.8 4414.46Z" fill="white"/>
<path fill-rule="evenodd" clip-rule="evenodd" d="M9757.93 2268.61C9902.82 2268.61 10020.4 2386.21 10020.4 2531.1C10020.4 2676.93 9902.82 2794.54 9757.93 2794.54C9612.1 2794.54 9494.49 2676.93 9494.49 2531.1C9494.49 2386.21 9612.1 2268.61 9757.93 2268.61Z" fill="white"/>
<path fill-rule="evenodd" clip-rule="evenodd" d="M7454.74 2296.87C7599.63 2296.87 7718.18 2414.48 7718.18 2559.37C7718.18 2705.2 7599.63 2822.81 7454.74 2822.81C7309.85 2822.81 7191.3 2705.2 7191.3 2559.37C7191.3 2414.48 7309.85 2296.87 7454.74 2296.87Z" fill="white"/>
<path fill-rule="evenodd" clip-rule="evenodd" d="M6309.85 3277.67C6454.74 3277.67 6572.35 3395.27 6572.35 3540.16C6572.35 3686 6454.74 3803.6 6309.85 3803.6C6164.02 3803.6 6046.41 3686 6046.41 3540.16C6046.41 3395.27 6164.02 3277.67 6309.85 3277.67Z" fill="white"/>
<path fill-rule="evenodd" clip-rule="evenodd" d="M10905.9 3232.54C11061.1 3232.54 11187.2 3358.61 11187.2 3513.85C11187.2 3669.09 11061.1 3794.23 10905.9 3794.23C10750.7 3794.23 10624.6 3669.09 10624.6 3513.85C10624.6 3358.61 10750.7 3232.54 10905.9 3232.54Z" fill="white"/>
<path fill-rule="evenodd" clip-rule="evenodd" d="M10988.8 1498.08C11159.1 1498.08 11298.3 1636.38 11298.3 1807.62C11298.3 1978.85 11159.1 2117.16 10988.8 2117.16C10817.6 2117.16 10679.3 1978.85 10679.3 1807.62C10679.3 1636.38 10817.6 1498.08 10988.8 1498.08Z" fill="white"/>
<path fill-rule="evenodd" clip-rule="evenodd" d="M12293.8 902.516C12506.4 902.516 12678.6 1075.63 12678.6 1288.26C12678.6 1499.95 12506.4 1672.13 12293.8 1672.13C12082.1 1672.13 11909.9 1499.95 11909.9 1288.26C11909.9 1075.63 12082.1 902.516 12293.8 902.516Z" fill="white"/>
<path fill-rule="evenodd" clip-rule="evenodd" d="M13647.5 479.145C13894 479.145 14094.4 678.604 14094.4 925.106C14094.4 1171.61 13894 1372.01 13647.5 1372.01C13401 1372.01 13201.6 1171.61 13201.6 925.106C13201.6 678.604 13401 479.145 13647.5 479.145Z" fill="white"/>
<path fill-rule="evenodd" clip-rule="evenodd" d="M15035.4 191.922C15293.2 191.922 15502 400.79 15502 658.583C15502 916.375 15293.2 1125.24 15035.4 1125.24C14777.6 1125.24 14568.7 916.375 14568.7 658.583C14568.7 400.79 14777.6 191.922 15035.4 191.922Z" fill="white"/>
<path fill-rule="evenodd" clip-rule="evenodd" d="M16443.7 0C16731.6 0 16965 234.271 16965 522.171C16965 810.07 16731.6 1043.4 16443.7 1043.4C16155.8 1043.4 15922.5 810.07 15922.5 522.171C15922.5 234.271 16155.8 0 16443.7 0Z" fill="white"/>
<path fill-rule="evenodd" clip-rule="evenodd" d="M12205.3 2591.08C12376.6 2591.08 12514.9 2730.33 12514.9 2900.62C12514.9 3071.86 12376.6 3210.16 12205.3 3210.16C12034.1 3210.16 11895.8 3071.86 11895.8 2900.62C11895.8 2730.33 12034.1 2591.08 12205.3 2591.08Z" fill="white"/>
<path fill-rule="evenodd" clip-rule="evenodd" d="M13565.5 2092.2C13778.2 2092.2 13950.4 2264.37 13950.4 2477.01C13950.4 2689.64 13778.2 2861.81 13565.5 2861.81C13352.9 2861.81 13180.7 2689.64 13180.7 2477.01C13180.7 2264.37 13352.9 2092.2 13565.5 2092.2Z" fill="white"/>
<path fill-rule="evenodd" clip-rule="evenodd" d="M14993.9 1770.45C15241.3 1770.45 15440.8 1970.85 15440.8 2217.35C15440.8 2463.85 15241.3 2663.31 14993.9 2663.31C14747.4 2663.31 14547.9 2463.85 14547.9 2217.35C14547.9 1970.85 14747.4 1770.45 14993.9 1770.45Z" fill="white"/>
<path fill-rule="evenodd" clip-rule="evenodd" d="M16498.2 1722.44C16756 1722.44 16964.8 1932.25 16964.8 2190.04C16964.8 2447.83 16756 2656.7 16498.2 2656.7C16240.4 2656.7 16031.5 2447.83 16031.5 2190.04C16031.5 1932.25 16240.4 1722.44 16498.2 1722.44Z" fill="white"/>
<path fill-rule="evenodd" clip-rule="evenodd" d="M13381.3 3739.86C13551.5 3739.86 13690.8 3878.16 13690.8 4049.39C13690.8 4220.63 13551.5 4358.93 13381.3 4358.93C13210 4358.93 13071.7 4220.63 13071.7 4049.39C13071.7 3878.16 13210 3739.86 13381.3 3739.86Z" fill="white"/>
<path fill-rule="evenodd" clip-rule="evenodd" d="M14993.9 3356.72C15206.5 3356.72 15378.7 3528.89 15378.7 3741.53C15378.7 3954.16 15206.5 4126.33 14993.9 4126.33C14782.2 4126.33 14610 3954.16 14610 3741.53C14610 3528.89 14782.2 3356.72 14993.9 3356.72Z" fill="white"/>
<path fill-rule="evenodd" clip-rule="evenodd" d="M16538.7 3315.8C16770.2 3315.8 16958.4 3503.97 16958.4 3735.42C16958.4 3966.87 16770.2 4154.1 16538.7 4154.1C16308.2 4154.1 16120.1 3966.87 16120.1 3735.42C16120.1 3503.97 16308.2 3315.8 16538.7 3315.8Z" fill="white"/>
<path fill-rule="evenodd" clip-rule="evenodd" d="M6216.58 1538.99C6387.82 1538.99 6526.12 1677.29 6526.12 1848.53C6526.12 2018.82 6387.82 2158.07 6216.58 2158.07C6045.35 2158.07 5907.04 2018.82 5907.04 1848.53C5907.04 1677.29 6045.35 1538.99 6216.58 1538.99Z" fill="white"/>
<path fill-rule="evenodd" clip-rule="evenodd" d="M4929.62 957.566C5142.25 957.566 5314.43 1129.74 5314.43 1342.37C5314.43 1555 5142.25 1727.18 4929.62 1727.18C4717.93 1727.18 4544.82 1555 4544.82 1342.37C4544.82 1129.74 4717.93 957.566 4929.62 957.566Z" fill="white"/>
<path fill-rule="evenodd" clip-rule="evenodd" d="M3566.46 534.188C3813.9 534.188 4013.36 733.647 4013.36 980.15C4013.36 1226.65 3813.9 1426.11 3566.46 1426.11C3320.89 1426.11 3120.49 1226.65 3120.49 980.15C3120.49 733.647 3320.89 534.188 3566.46 534.188Z" fill="white"/>
<path fill-rule="evenodd" clip-rule="evenodd" d="M2182.24 260.387C2440.03 260.387 2648.9 469.255 2648.9 727.047C2648.9 984.84 2440.03 1194.65 2182.24 1194.65C1924.44 1194.65 1715.58 984.84 1715.58 727.047C1715.58 469.255 1924.44 260.387 2182.24 260.387Z" fill="white"/>
<path fill-rule="evenodd" clip-rule="evenodd" d="M777.536 0C1065.44 0 1298.77 234.271 1298.77 522.171C1298.77 810.07 1065.44 1043.4 777.536 1043.4C489.636 1043.4 256.306 810.07 256.306 522.171C256.306 234.271 489.636 0 777.536 0Z" fill="white"/>
<path fill-rule="evenodd" clip-rule="evenodd" d="M5006.78 2632.71C5177.07 2632.71 5316.32 2771.96 5316.32 2942.25C5316.32 3113.48 5177.07 3251.79 5006.78 3251.79C4835.54 3251.79 4697.24 3113.48 4697.24 2942.25C4697.24 2771.96 4835.54 2632.71 5006.78 2632.71Z" fill="white"/>
<path fill-rule="evenodd" clip-rule="evenodd" d="M3636.91 2133.84C3848.6 2133.84 4021.71 2306.01 4021.71 2518.64C4021.71 2731.27 3848.6 2903.45 3636.91 2903.45C3424.27 2903.45 3252.1 2731.27 3252.1 2518.64C3252.1 2306.01 3424.27 2133.84 3636.91 2133.84Z" fill="white"/>
<path fill-rule="evenodd" clip-rule="evenodd" d="M2183.3 1812.07C2429.8 1812.07 2629.26 2012.48 2629.26 2258.98C2629.26 2505.48 2429.8 2704.94 2183.3 2704.94C1936.79 2704.94 1736.39 2505.48 1736.39 2258.98C1736.39 2012.48 1936.79 1812.07 2183.3 1812.07Z" fill="white"/>
<path fill-rule="evenodd" clip-rule="evenodd" d="M722.272 1764.07C980.064 1764.07 1188.93 1972.94 1188.93 2231.68C1188.93 2489.47 980.064 2698.34 722.272 2698.34C464.48 2698.34 255.611 2489.47 255.611 2231.68C255.611 1972.94 464.48 1764.07 722.272 1764.07Z" fill="white"/>
<path fill-rule="evenodd" clip-rule="evenodd" d="M3838.24 3781.48C4009.48 3781.48 4147.78 3919.79 4147.78 4091.02C4147.78 4262.26 4009.48 4400.56 3838.24 4400.56C3667.01 4400.56 3528.7 4262.26 3528.7 4091.02C3528.7 3919.79 3667.01 3781.48 3838.24 3781.48Z" fill="white"/>
<path fill-rule="evenodd" clip-rule="evenodd" d="M2266.2 3398.35C2478.83 3398.35 2651 3570.53 2651 3783.16C2651 3995.79 2478.83 4167.97 2266.2 4167.97C2053.57 4167.97 1881.39 3995.79 1881.39 3783.16C1881.39 3570.53 2053.57 3398.35 2266.2 3398.35Z" fill="white"/>
<path fill-rule="evenodd" clip-rule="evenodd" d="M652.417 3356.72C883.866 3356.72 1072.04 3544.89 1072.04 3776.34C1072.04 4007.79 883.866 4195.01 652.417 4195.01C420.968 4195.01 233.739 4007.79 233.739 3776.34C233.739 3544.89 420.968 3356.72 652.417 3356.72Z" fill="white"/>
</svg>
